<svg width="1298" height="78" viewBox="0 0 1298 78" fill="none" xmlns="http://www.w3.org/2000/svg">
<g filter="url(#filter0_i_56_21)">
<path d="M0 15C0 6.71573 6.71573 0 15 0H1283C1291.28 0 1298 6.71573 1298 15V63C1298 71.2843 1291.28 78 1283 78H15C6.71576 78 0 71.2843 0 63V15Z" fill="white"/>
</g>
<path d="M0.5 15C0.5 6.99187 6.99187 0.5 15 0.5H1283C1291.01 0.5 1297.5 6.99187 1297.5 15V63C1297.5 71.0081 1291.01 77.5 1283 77.5H15C6.99191 77.5 0.5 71.0081 0.5 63V15Z" stroke="black"/>
<defs>
<filter id="filter0_i_56_21" x="0" y="0" width="1298" height="82" filterUnits="userSpaceOnUse" color-interpolation-filters="sRGB">
<feFlood flood-opacity="0" result="BackgroundImageFix"/>
<feBlend mode="normal" in="SourceGraphic" in2="BackgroundImageFix" result="shape"/>
<feColorMatrix in="SourceAlpha" type="matrix" values="0 0 0 0 0 0 0 0 0 0 0 0 0 0 0 0 0 0 127 0" result="hardAlpha"/>
<feOffset dy="4"/>
<feGaussianBlur stdDeviation="2"/>
<feComposite in2="hardAlpha" operator="arithmetic" k2="-1" k3="1"/>
<feColorMatrix type="matrix" values="0 0 0 0 0 0 0 0 0 0 0 0 0 0 0 0 0 0 0.45 0"/>
<feBlend mode="normal" in2="shape" result="effect1_innerShadow_56_21"/>
</filter>
</defs>
</svg>
