<svg width="394" height="60" viewBox="0 0 394 60" fill="none" xmlns="http://www.w3.org/2000/svg">
<g filter="url(#filter0_i_101_4639)">
<path d="M0 15C0 6.71573 6.71573 0 15 0H379C387.284 0 394 6.71573 394 15V44.2644C394 52.5487 387.284 59.2644 379 59.2644H15C6.71572 59.2644 0 52.5487 0 44.2644V15Z" fill="white"/>
</g>
<path d="M0.5 15C0.5 6.99187 6.99187 0.5 15 0.5H379C387.008 0.5 393.5 6.99187 393.5 15V44.2644C393.5 52.2725 387.008 58.7644 379 58.7644H15C6.99186 58.7644 0.5 52.2725 0.5 44.2644V15Z" stroke="black"/>
<defs>
<filter id="filter0_i_101_4639" x="0" y="0" width="394" height="63.2644" filterUnits="userSpaceOnUse" color-interpolation-filters="sRGB">
<feFlood flood-opacity="0" result="BackgroundImageFix"/>
<feBlend mode="normal" in="SourceGraphic" in2="BackgroundImageFix" result="shape"/>
<feColorMatrix in="SourceAlpha" type="matrix" values="0 0 0 0 0 0 0 0 0 0 0 0 0 0 0 0 0 0 127 0" result="hardAlpha"/>
<feOffset dy="4"/>
<feGaussianBlur stdDeviation="2"/>
<feComposite in2="hardAlpha" operator="arithmetic" k2="-1" k3="1"/>
<feColorMatrix type="matrix" values="0 0 0 0 0 0 0 0 0 0 0 0 0 0 0 0 0 0 0.45 0"/>
<feBlend mode="normal" in2="shape" result="effect1_innerShadow_101_4639"/>
</filter>
</defs>
</svg>
